# xmcd CD database file
#
# Track frame offsets:
#	150
#	6529
#	31757
#	48172
#	65421
#	82145
#	104476
#	123629
#	144928
#
# Disc length: 2210 seconds
#
# Revision: 1
# Processed by: cddbd v1.5.2PL0 Copyright (c) Steve Scherf et al.
# Submitted via: CDex 1.70beta2
#
DISCID=7808a009
DTITLE=通天 - SUPER NOVA
DYEAR=2005
DGENRE=Game
TTITLE0=銀の意志 ～opening～
TTITLE1=銀の意志
TTITLE2=splendid cherryblossom, bloom elegantly
TTITLE3=The theme of Arcueid
TTITLE4=雨色マスタースパーク
TTITLE5=月兎
TTITLE6=竹取飛翔
TTITLE7=Ｆａｒｅｗｅｌｌ
TTITLE8=Midnightmagic
EXTD=YEAR: 2005
EXTT0=
EXTT1=
EXTT2=
EXTT3=
EXTT4=
EXTT5=
EXTT6=
EXTT7=
EXTT8=
PLAYORDER=
